<svg width="280" height="280" viewBox="0 0 280 280" fill="none" xmlns="http://www.w3.org/2000/svg">
<path d="M128.839 255.05H0L1.74487 38.7845L134.074 36.0397L128.839 255.05Z" fill="#51AE9E"/>
<path d="M128.839 255.05H0L1.74487 38.7845L134.074 36.0397L128.839 255.05Z" fill="url(#paint0_linear)" fill-opacity="0.2" style="mix-blend-mode:overlay"/>
<path d="M133.925 36.0397L147.761 239.267L128.607 255.05L133.925 36.0397Z" fill="#2E3054"/>
<path d="M99.4079 54.0594C99.4079 55.8383 97.7661 57.2938 95.7596 57.2938C93.753 57.2938 92.1113 55.8383 92.1113 54.0594C92.1113 52.2805 93.753 50.8251 95.7596 50.8251C97.7661 50.8251 99.4079 52.2805 99.4079 54.0594Z" fill="#F8F8F8"/>
<path d="M36.3883 53.5973C36.3883 55.6303 34.7466 57.2937 32.7401 57.2937C30.7335 57.2937 29.0918 55.6303 29.0918 53.5973C29.0918 51.5643 30.7335 49.9009 32.7401 49.9009C34.7466 49.9009 36.3883 51.5643 36.3883 53.5973Z" fill="#F8F8F8"/>
<path d="M96.6825 53.5977C96.6259 45.8597 94.8129 0.933004 65.1823 0.00906238C58.2137 -0.164177 52.2083 2.14568 47.2227 6.99637C32.4357 21.433 31.9824 52.847 31.9258 54.1751H31.9824C32.0391 54.5794 32.379 54.8681 32.7756 54.8681C33.1722 54.8681 33.5121 54.5794 33.5688 54.2329C33.5688 53.8864 34.0787 22.1837 48.3558 8.26679C53.0015 3.70483 58.6103 1.51047 65.1257 1.74145C93 2.60765 94.8696 45.3399 94.9829 53.3667C94.9829 54.1751 95.0962 54.6948 95.0962 54.6948C95.1529 55.0991 95.4928 55.4455 95.8894 55.4455C96.3426 55.4455 96.6825 55.0991 96.6825 54.6371C96.6825 54.5216 96.6825 53.8864 96.6825 53.5977Z" fill="black"/>
<path d="M259.65 264.769H118.568L120.489 57.6293L265.411 55L259.65 264.769Z" fill="#2A2B7C"/>
<path d="M259.65 264.769H118.568L120.489 57.6293L265.411 55L259.65 264.769Z" fill="url(#paint1_linear)" fill-opacity="0.2" style="mix-blend-mode:overlay"/>
<path d="M264.884 54.5215L279.999 249.144L259.021 264.291L264.884 54.5215Z" fill="#2E3054"/>
<path d="M220.717 82.7063C220.717 84.4852 219.28 85.9406 217.524 85.9406C215.769 85.9406 214.332 84.4852 214.332 82.7063C214.332 80.9274 215.769 79.472 217.524 79.472C219.28 79.472 220.717 80.9274 220.717 82.7063Z" fill="#F9E0E9"/>
<path d="M154.144 82.7063C154.144 84.4852 152.708 85.9406 150.952 85.9406C149.196 85.9406 147.76 84.4852 147.76 82.7063C147.76 80.9274 149.196 79.472 150.952 79.472C152.708 79.472 154.144 80.9274 154.144 82.7063Z" fill="#F8F8F8"/>
<path d="M232.367 91.0345C231.574 91.7982 231.433 93.2668 232.041 94.2654C232.648 95.2641 233.815 95.4403 234.609 94.6766C235.403 93.913 235.543 92.4444 234.936 91.4457C234.329 90.4471 233.208 90.2709 232.367 91.0345ZM234.235 94.8529C233.675 95.3816 232.881 95.2641 232.461 94.5592C232.041 93.8542 232.134 92.8556 232.694 92.3269C233.255 91.7982 234.049 91.9157 234.469 92.6206C234.889 93.3255 234.749 94.3242 234.235 94.8529Z" fill="#C3CFCE"/>
<path d="M236.761 82.2441L223.179 92.9129L221.639 105.669L248.744 141.386L276.363 119.701L249.257 83.9836L236.761 82.2441ZM234.421 93.4347C233.736 93.9566 232.766 93.8406 232.253 93.1448C231.739 92.449 231.853 91.4633 232.538 90.9415C233.223 90.4196 234.193 90.5356 234.706 91.2314C235.22 91.9272 235.106 92.9129 234.421 93.4347Z" fill="white"/>
<path d="M231.987 90.3123C230.609 91.4173 230.322 93.4528 231.413 94.8486C232.503 96.2444 234.512 96.5352 235.89 95.4302C237.268 94.3252 237.555 92.2896 236.464 90.8938C235.373 89.498 233.364 89.2072 231.987 90.3123ZM234.857 94.1507C234.168 94.6741 233.192 94.5578 232.675 93.8599C232.159 93.162 232.274 92.1733 232.962 91.6499C233.651 91.1265 234.627 91.2428 235.144 91.9407C235.66 92.6386 235.546 93.6273 234.857 94.1507Z" fill="#3D3942"/>
<path d="M216.69 68.7175L216.135 68.3827L215.747 68.9407C214.082 71.4516 217.023 77.5895 218.355 80.1004C220.185 83.5041 223.126 87.9122 226.067 90.758L227.121 89.921C224.624 87.5774 221.794 83.7831 219.52 79.4308C217.356 75.4133 216.302 72.0096 216.579 70.3356C220.075 72.6792 235.609 83.6715 232.724 90.9254C232.447 91.5949 232.17 91.9297 231.837 92.0971C231.837 92.3203 231.781 92.3761 231.948 92.7667C232.114 93.1573 232.225 93.3805 232.391 93.3247C232.946 93.0457 233.557 92.4877 233.945 91.4275C237.662 82.2208 217.578 69.2197 216.69 68.7175Z" fill="#F8F8F8"/>
<path d="M218.89 84.0923L217.196 84.0347C217.196 83.9771 217.196 82.7676 217.196 80.6364C217.139 79.1965 217.083 77.4109 216.97 75.3374C216.01 57.9427 211.04 17.3934 185.568 16.4718C179.581 16.2414 174.272 18.3726 169.753 22.7501C152.753 39.2808 152.189 83.0556 152.189 83.4588H150.494C150.494 81.6156 151.059 38.5896 168.567 21.5405C173.425 16.8174 179.129 14.5711 185.568 14.8015C212.395 15.7806 217.591 57.4243 218.551 75.2798C218.664 77.4109 218.721 79.1965 218.777 80.6364C218.947 82.7676 218.89 84.0347 218.89 84.0923Z" fill="black"/>
<path d="M247.381 98.0161C249.072 96.4572 250.989 96.7459 252.849 98.8821C254.653 101.018 254.71 102.981 253.019 104.54L247.607 109.448C245.915 111.007 243.998 110.718 242.138 108.582C240.334 106.446 240.278 104.483 241.969 102.924L247.381 98.0161ZM243.66 105.175C242.927 105.81 242.984 106.503 243.547 107.196C244.111 107.889 244.788 108.004 245.521 107.369L251.158 102.231C251.891 101.596 251.835 100.845 251.271 100.21C250.651 99.5172 250.031 99.4018 249.298 100.037L243.66 105.175ZM260.009 107.485L261.757 109.506L237.91 115.972L236.219 113.951L260.009 107.485ZM250.538 114.182C252.229 112.623 254.146 112.912 256.006 115.048C257.81 117.185 257.867 119.148 256.175 120.706L250.764 125.614C249.072 127.173 247.156 126.884 245.295 124.748C243.491 122.612 243.435 120.649 245.126 119.09L250.538 114.182ZM246.817 121.342C246.084 121.977 246.141 122.67 246.705 123.362C247.268 124.055 247.945 124.171 248.678 123.536L254.315 118.397C255.048 117.762 254.992 117.011 254.428 116.376C253.808 115.683 253.188 115.568 252.455 116.203L246.817 121.342Z" fill="#2E3054"/>
<path d="M219.397 79.4131C218.563 77.8239 217.313 75.5461 216.844 73.0033C216.427 73.0563 216.479 74.8044 216.166 75.1223C216.791 76.8704 217.886 79.5191 218.407 80.5256C218.563 80.7904 218.72 81.0553 218.876 81.3202C219.241 81.1083 219.554 80.7904 219.814 80.4196C219.71 80.3137 219.502 79.625 219.397 79.4131Z" fill="#D2E0E9"/>
<path d="M151.406 84.0923C151.91 84.0923 152.318 83.6786 152.318 83.1682C152.318 82.6579 151.91 82.2441 151.406 82.2441C150.902 82.2441 150.494 82.6579 150.494 83.1682C150.494 83.6786 150.902 84.0923 151.406 84.0923Z" fill="#0B1238"/>
<path d="M217.98 84.0923C218.484 84.0923 218.892 83.6786 218.892 83.1682C218.892 82.6579 218.484 82.2441 217.98 82.2441C217.477 82.2441 217.068 82.6579 217.068 83.1682C217.068 83.6786 217.477 84.0923 217.98 84.0923Z" fill="#0B1238"/>
<path d="M174.309 99.802L188.798 266.978L168.732 280L174.309 99.802Z" fill="#2E3054"/>
<path d="M168.759 280H34.6621L36.4598 102.029L174.208 99.802L168.759 280Z" fill="#FA6082"/>
<path d="M168.759 280H34.6621L36.4598 102.029L174.208 99.802L168.759 280Z" fill="url(#paint2_linear)" fill-opacity="0.3" style="mix-blend-mode:overlay"/>
<path d="M137.722 122.904C137.722 124.937 136.081 126.601 134.074 126.601C132.068 126.601 130.426 124.937 130.426 122.904C130.426 120.871 132.068 119.208 134.074 119.208C136.081 119.208 137.722 120.871 137.722 122.904Z" fill="#F8F8F8"/>
<path d="M72.0504 121.98C72.0504 124.013 70.4087 125.677 68.4022 125.677C66.3956 125.677 64.7539 124.013 64.7539 121.98C64.7539 119.947 66.3956 118.284 68.4022 118.284C70.4087 118.284 72.0504 119.886 72.0504 121.98Z" fill="#F8F8F8"/>
<path d="M134.983 122.916C134.983 122.744 134.983 122.516 134.983 122.231C134.983 113.902 133.964 58.4506 102.199 57.3097C95.7444 57.0815 89.969 59.3064 85.1562 63.9843C69.5286 79.0452 67.7733 114.587 67.6035 121.489C67.6035 121.718 67.4902 122.345 67.4902 122.459C67.4902 122.916 67.8866 123.315 68.3396 123.315C68.7359 123.315 69.1323 123.03 69.1889 122.573H69.2455C69.2455 122.516 69.2455 122.288 69.2455 121.889C69.4154 116.355 71.0008 79.958 86.2886 65.1824C90.7617 60.8467 96.1408 58.7929 102.086 58.9641C132.209 60.048 133.228 115.499 133.228 122.402C133.228 122.573 133.228 122.973 133.228 123.03C133.228 123.087 133.228 123.087 133.228 123.144C133.341 123.543 133.681 123.828 134.077 123.828C134.474 123.828 134.813 123.543 134.87 123.201C134.927 123.201 134.983 122.973 134.983 122.916Z" fill="black"/>
<defs>
<linearGradient id="paint0_linear" x1="67.0369" y1="36.0397" x2="67.0369" y2="255.05" gradientUnits="userSpaceOnUse">
<stop stop-color="white"/>
<stop offset="1" stop-color="white" stop-opacity="0"/>
</linearGradient>
<linearGradient id="paint1_linear" x1="191.99" y1="55" x2="191.99" y2="264.769" gradientUnits="userSpaceOnUse">
<stop stop-color="white"/>
<stop offset="1" stop-color="white" stop-opacity="0"/>
</linearGradient>
<linearGradient id="paint2_linear" x1="104.435" y1="99.802" x2="104.435" y2="280" gradientUnits="userSpaceOnUse">
<stop stop-color="white"/>
<stop offset="1" stop-color="white" stop-opacity="0"/>
</linearGradient>
</defs>
</svg>
