<svg width="251" height="190" viewBox="0 0 251 190" fill="none" xmlns="http://www.w3.org/2000/svg">
<path d="M48.7448 116.026C49.2027 116.453 49.4062 116.88 49.4062 117.354C49.4062 117.924 49.2027 118.351 48.8465 118.683C46.3533 121.198 43.3004 123.191 39.6878 124.662C36.0752 126.133 32.2082 126.844 28.0867 126.844C23.1003 126.844 18.5209 125.706 14.2977 123.475C10.0745 121.198 6.76719 118.161 4.27397 114.318C1.83164 110.474 0.610474 106.251 0.610474 101.649C0.610474 96.9512 1.72988 92.6333 3.96868 88.7899C6.20749 84.9464 9.41305 81.8622 13.5345 79.6321C17.6559 77.3545 22.4388 76.2632 27.8832 76.2632C32.0046 76.2632 35.9225 77.0698 39.7387 78.6357C43.5548 80.2015 46.6077 82.1944 48.8465 84.5669C49.1518 84.899 49.3045 85.326 49.3045 85.8005C49.3045 86.3699 49.101 86.8444 48.643 87.224L44.1145 91.1149C43.7584 91.447 43.2495 91.6368 42.6898 91.6368C42.0792 91.6368 41.6722 91.4945 41.3669 91.2098C39.3316 89.4542 37.2455 88.1256 35.1084 87.3189C32.9714 86.5123 30.529 86.0852 27.7305 86.0852C22.7441 86.0852 18.8262 87.5087 15.9259 90.3557C13.0257 93.2027 11.601 96.9512 11.601 101.696C11.601 106.394 12.9748 110.142 15.7733 112.894C18.5718 115.646 22.5915 117.022 27.8832 117.022C32.9205 117.022 37.5508 115.362 41.7231 111.993C42.0284 111.708 42.4354 111.566 42.9442 111.566C43.5548 111.566 44.0128 111.755 44.3689 112.088L48.7448 116.026Z" fill="black"/>
<path d="M103.799 110.902C103.799 114.318 103.748 117.307 103.596 119.917C103.443 122.527 103.341 124.14 103.29 124.852C103.29 125.421 103.087 125.896 102.629 126.275C102.171 126.655 101.662 126.892 101.001 126.892H95.2C94.6912 126.892 94.2333 126.702 93.7753 126.275C93.3174 125.848 93.063 125.374 93.0121 124.852L92.9104 120.344C92.9104 120.202 92.8595 120.107 92.7577 120.059C92.6559 120.012 92.5033 120.012 92.3506 120.154C90.8751 122.052 88.6363 123.666 85.5325 124.994C82.4796 126.275 79.4775 126.94 76.6281 126.94C71.7435 126.94 67.1641 125.801 62.9918 123.571C58.8195 121.293 55.5121 118.256 53.1207 114.365C50.6783 110.475 49.5081 106.252 49.5081 101.649C49.5081 97.0938 50.7292 92.8708 53.1207 88.98C55.563 85.1366 58.8195 82.0523 62.9918 79.7748C67.1641 77.4972 71.6926 76.3584 76.6281 76.3584C81.411 76.3584 85.7869 77.4497 89.8066 79.585C93.8262 81.7202 97.0827 84.6621 99.525 88.3157C101.967 91.9693 103.29 96.0025 103.545 100.463C103.697 104.116 103.799 107.628 103.799 110.902ZM84.6166 114.603C87.0589 113.227 88.9924 111.376 90.4171 109.051C91.8418 106.726 92.5542 104.211 92.5542 101.459C92.5542 98.7071 91.8418 96.2397 90.3663 93.9147C88.8907 91.6371 86.9572 89.8341 84.4639 88.5055C82.0216 87.1769 79.3249 86.5126 76.3737 86.5126C73.5243 86.5126 70.8785 87.1769 68.3853 88.5529C65.9429 89.929 63.9585 91.732 62.483 94.0571C61.0074 96.3347 60.295 98.8495 60.295 101.602C60.295 104.354 61.0074 106.868 62.483 109.146C63.9585 111.424 65.892 113.274 68.3853 114.65C70.8276 116.026 73.5243 116.69 76.4755 116.69C79.4775 116.643 82.1743 115.979 84.6166 114.603Z" fill="black"/>
<path d="M154.935 125.042C154.935 125.517 154.732 125.944 154.376 126.323C154.019 126.703 153.562 126.893 153.053 126.893H146.896C146.387 126.893 145.929 126.703 145.522 126.323C145.115 125.944 144.912 125.517 144.912 125.042L144.454 97.8062C144.454 94.0577 143.233 91.1158 140.841 88.9805C138.399 86.8453 135.549 85.8014 132.293 85.8014C128.986 85.8014 126.136 86.8453 123.643 88.9805C121.201 91.1158 119.979 94.0577 119.979 97.8062L119.674 125.042C119.674 125.517 119.471 125.944 119.115 126.323C118.758 126.703 118.25 126.893 117.69 126.893H111.533C111.024 126.893 110.566 126.703 110.159 126.323C109.752 125.944 109.549 125.517 109.549 125.042L109.243 96.6674L109.345 79.0636C109.345 78.4942 109.549 78.0672 109.956 77.735C110.363 77.4029 110.821 77.2131 111.33 77.2131H117.944C118.453 77.2131 118.911 77.4029 119.267 77.735C119.623 78.0672 119.878 78.4942 119.929 78.9687V81.6259C122.727 78.0672 126.849 76.3115 132.344 76.3115C137.33 76.3115 141.553 77.308 145.013 79.3483C148.473 81.3412 151.068 83.9984 152.798 87.2724C154.528 90.5464 155.393 94.0577 155.393 97.8062L154.935 125.042Z" fill="black"/>
<path d="M43.4528 136.857H50.1692C50.8307 136.857 51.3395 137.094 51.6957 137.616C52.0519 138.138 52.1536 138.66 51.8992 139.182L32.7676 185.682C32.4114 186.441 31.8009 186.821 30.9868 186.821H23.6598C22.7948 186.821 22.1333 186.441 21.7771 185.682L2.74727 139.182C2.69639 139.039 2.64551 138.849 2.64551 138.565C2.64551 138.09 2.84904 137.663 3.20521 137.331C3.56138 136.999 4.01932 136.809 4.52814 136.809H11.2446C11.6007 136.809 11.9569 136.904 12.364 137.094C12.7201 137.284 12.9745 137.568 13.0254 137.9L27.425 171.305L41.7228 137.9C42.079 137.236 42.6387 136.857 43.4528 136.857Z" fill="black"/>
<path d="M107.666 170.878C107.666 174.295 107.615 177.284 107.462 179.894C107.31 182.503 107.208 184.117 107.157 184.828C107.157 185.398 106.953 185.872 106.496 186.252C106.038 186.631 105.529 186.869 104.867 186.869H99.0667C98.5579 186.869 98.1 186.679 97.6421 186.252C97.1841 185.825 96.9297 185.35 96.8788 184.828L96.7771 180.321C96.7771 180.178 96.7262 180.083 96.6244 180.036C96.5226 179.989 96.37 179.989 96.2174 180.131C94.7418 182.029 92.503 183.642 89.3992 184.971C86.3463 186.252 83.3442 186.916 80.4948 186.916C75.6102 186.916 71.0308 185.777 66.8585 183.547C62.6861 181.27 59.3788 178.233 56.9874 174.342C54.545 170.451 53.3748 166.228 53.3748 161.626C53.3748 157.07 54.5959 152.847 56.9874 148.957C59.4297 145.113 62.6861 142.029 66.8585 139.751C71.0308 137.474 75.5593 136.335 80.4948 136.335C85.2777 136.335 89.6536 137.426 93.6733 139.562C97.6929 141.697 100.949 144.639 103.392 148.292C105.834 151.946 107.208 155.979 107.411 160.439C107.564 164.093 107.666 167.604 107.666 170.878ZM88.4833 174.579C90.9256 173.203 92.8591 171.353 94.2838 169.028C95.7085 166.703 96.4209 164.188 96.4209 161.436C96.4209 158.684 95.7085 156.216 94.233 153.891C92.7574 151.614 90.8239 149.811 88.3307 148.482C85.8883 147.153 83.1916 146.489 80.2404 146.489C77.391 146.489 74.7452 147.153 72.252 148.529C69.8096 149.906 67.8252 151.709 66.3496 154.034C64.8741 156.311 64.1617 158.826 64.1617 161.578C64.1617 164.33 64.8741 166.845 66.3496 169.123C67.8252 171.4 69.7587 173.251 72.252 174.627C74.6943 176.003 77.391 176.667 80.3422 176.667C83.3442 176.62 86.041 175.955 88.4833 174.579Z" fill="black"/>
<path d="M151.679 168.316C152.187 169.739 152.442 171.21 152.442 172.729C152.442 175.528 151.526 178.043 149.643 180.226C147.761 182.408 145.318 184.069 142.265 185.255C139.213 186.394 136.007 187.011 132.547 187.011C128.731 187.011 125.118 186.252 121.658 184.686C118.198 183.168 115.451 180.843 113.314 177.758C113.161 177.569 113.11 177.189 113.11 176.714C113.11 175.813 113.415 175.243 114.077 174.959L119.572 172.207C119.877 172.064 120.183 172.017 120.437 172.017C121.099 172.017 121.658 172.254 122.065 172.729C123.286 174.01 124.915 175.101 126.899 175.908C128.883 176.714 130.817 177.141 132.7 177.141C134.837 177.141 136.77 176.714 138.602 175.813C140.383 174.911 141.299 173.678 141.299 172.017C141.299 170.356 140.586 169.217 139.162 168.458C137.737 167.746 135.498 167.13 132.394 166.56C128.731 165.801 126.085 165.137 124.508 164.52C121.048 163.239 118.453 161.436 116.723 159.111C114.942 156.786 114.077 154.318 114.077 151.614C114.077 148.15 115.502 144.971 118.3 142.076C121.099 139.229 125.016 137.379 130.003 136.667C131.529 136.477 133.056 136.382 134.531 136.382C142.52 136.382 148.677 139.561 153.002 145.92C153.205 146.204 153.307 146.537 153.307 146.964C153.307 147.723 152.951 148.292 152.187 148.719L147.354 151.376C146.896 151.519 146.59 151.566 146.387 151.566C145.675 151.566 145.064 151.329 144.606 150.854C141.655 147.486 138.093 145.825 133.819 145.825C133.31 145.825 132.547 145.872 131.529 146.015C129.748 146.299 128.273 146.869 127.001 147.77C125.78 148.672 125.118 149.573 125.016 150.522C124.864 152.23 125.22 153.607 126.136 154.603C127.001 155.647 128.171 156.406 129.647 156.928C131.122 157.45 133.208 157.972 135.905 158.494C138.856 159.158 141.197 159.822 143.029 160.439C144.86 161.056 146.54 162.005 148.117 163.239C149.796 164.52 150.915 166.228 151.679 168.316Z" fill="black"/>
<path d="M5.08819 55.149L0 59.894V0.297363H63.9077L58.8195 5.04232H5.08819V55.149Z" fill="black"/>
<path d="M250.186 55.1485L245.098 59.8935V5.04183H186.279L190.858 0.296875H250.186V55.1485Z" fill="black"/>
<path d="M250.186 190H186.279L191.367 185.255H245.098V135.148L250.186 130.403V190Z" fill="black"/>
</svg>
