<svg width="24" height="24" viewBox="0 0 24 24" fill="none" xmlns="http://www.w3.org/2000/svg">
<path d="M22 3.5C22.1486 3.503 22.2896 3.53016 22.4304 3.59712C22.5756 3.66656 22.7034 3.7712 22.8 3.9C22.8634 3.99439 22.8485 3.96607 22.8 3.9C22.9295 4.0727 23 4.28417 23 4.5C22.9996 4.44673 22.9974 4.42362 23 4.5V19.5C23 20.0523 22.5523 20.5 22 20.5H2C1.44772 20.5 1 20.0523 1 19.5V4.5C1 4.32097 1.04857 4.14321 1.13992 3.98967C1.32609 3.67598 1.64856 3.50709 2 3.5H22ZM21 6.5L12.6 12.8C12.28 13.04 11.852 13.064 11.5104 12.872L11.4 12.8L3 6.5V18.5H21V6.5ZM5 5.5L12 10.75L19 5.5H5Z" fill="black" fill-opacity="0.65"/>
</svg>
