<svg width="24" height="24" viewBox="0 0 24 24" fill="none" xmlns="http://www.w3.org/2000/svg">
<path fill-rule="evenodd" clip-rule="evenodd" d="M2 21C2 20.4477 2.44772 20 3 20L21 20C21.5523 20 22 20.4477 22 21C22 21.5523 21.5523 22 21 22L3 22C2.44772 22 2 21.5523 2 21ZM2 3C2 2.44772 2.44771 2 3 2L21 2C21.5523 2 22 2.44771 22 3C22 3.55228 21.5523 4 21 4L3 4C2.44771 4 2 3.55228 2 3Z" fill="#575757"/>
<path fill-rule="evenodd" clip-rule="evenodd" d="M7.18198 11.7071C7.73426 11.7071 8.18198 12.1548 8.18198 12.7071L8.18198 13.8284L13.253 8.75734L12.1317 8.75734C11.5794 8.75734 11.1317 8.30962 11.1317 7.75734C11.1317 7.20505 11.5794 6.75734 12.1317 6.75734L15.6663 6.75734C15.6697 6.75733 15.6731 6.75735 15.6765 6.75738C15.8087 6.75858 15.9348 6.78543 16.05 6.83322C16.1671 6.88166 16.2769 6.95329 16.3722 7.04811L16.3744 7.05023L16.3765 7.05236C16.4713 7.14774 16.5429 7.25748 16.5914 7.37456C16.6408 7.49393 16.6661 7.62093 16.6672 7.74811C16.6672 7.75152 16.6673 7.75493 16.6673 7.75835L16.6673 11.2929C16.6673 11.8452 16.2195 12.2929 15.6673 12.2929C15.115 12.2929 14.6673 11.8452 14.6673 11.2929V10.1716L9.59619 15.2426H10.7175C11.2698 15.2426 11.7175 15.6903 11.7175 16.2426C11.7175 16.7949 11.2698 17.2426 10.7175 17.2426H8.95008L7.18264 17.2426L7.17898 17.2426C7.04448 17.2422 6.91623 17.2153 6.7992 17.1667C6.68125 17.1179 6.57075 17.0456 6.47487 16.9497C6.379 16.8539 6.30666 16.7433 6.25786 16.6254C6.20933 16.5084 6.18238 16.3801 6.18199 16.2456L6.18198 16.2426L6.18198 12.7071C6.18198 12.1548 6.6297 11.7071 7.18198 11.7071Z" fill="#575757"/>
</svg>
