<svg width="24" height="24" viewBox="0 0 24 24" fill="none" xmlns="http://www.w3.org/2000/svg">
<path fill-rule="evenodd" clip-rule="evenodd" d="M3 2C3.55228 2 4 2.44772 4 3V21C4 21.5523 3.55228 22 3 22C2.44772 22 2 21.5523 2 21V3C2 2.44772 2.44772 2 3 2ZM21 2C21.5523 2 22 2.44772 22 3V21C22 21.5523 21.5523 22 21 22C20.4477 22 20 21.5523 20 21V3C20 2.44772 20.4477 2 21 2ZM9.20711 8.79289C9.59763 9.18342 9.59763 9.81658 9.20711 10.2071L8.41421 11H15.5858L14.7929 10.2071C14.4024 9.81658 14.4024 9.18342 14.7929 8.79289C15.1834 8.40237 15.8166 8.40237 16.2071 8.79289L18.7064 11.2922C18.7088 11.2946 18.7112 11.297 18.7136 11.2995C18.8063 11.3938 18.8764 11.502 18.9241 11.6172C18.9727 11.7343 18.9996 11.8625 19 11.997L19 12L19 12.003C18.9996 12.1375 18.9727 12.2657 18.9241 12.3828C18.8746 12.5021 18.8027 12.6098 18.7136 12.7005C18.7112 12.703 18.7088 12.7054 18.7064 12.7078L16.2071 15.2071C15.8166 15.5976 15.1834 15.5976 14.7929 15.2071C14.4024 14.8166 14.4024 14.1834 14.7929 13.7929L15.5858 13H8.41421L9.20711 13.7929C9.59763 14.1834 9.59763 14.8166 9.20711 15.2071C8.81658 15.5976 8.18342 15.5976 7.79289 15.2071L6.54313 13.9573L5.29336 12.7076L5.29078 12.705C5.19595 12.6096 5.12432 12.4999 5.07588 12.3828C5.02699 12.2649 5 12.1356 5 12C5 11.8644 5.02699 11.7351 5.07588 11.6172C5.12432 11.5001 5.19595 11.3904 5.29078 11.295L5.29289 11.2929L7.79289 8.79289C8.18342 8.40237 8.81658 8.40237 9.20711 8.79289Z" fill="#575757"/>
</svg>
