<svg width="24" height="24" viewBox="0 0 24 24" fill="none" xmlns="http://www.w3.org/2000/svg">
<path fill-rule="evenodd" clip-rule="evenodd" d="M2 21C2 20.4477 2.44772 20 3 20L21 20C21.5523 20 22 20.4477 22 21C22 21.5523 21.5523 22 21 22L3 22C2.44772 22 2 21.5523 2 21ZM2 3C2 2.44772 2.44771 2 3 2L21 2C21.5523 2 22 2.44771 22 3C22 3.55228 21.5523 4 21 4L3 4C2.44771 4 2 3.55228 2 3ZM8.79289 14.7929C9.18342 14.4024 9.81658 14.4024 10.2071 14.7929L11 15.5858L11 8.41421L10.2071 9.20711C9.81658 9.59763 9.18342 9.59763 8.79289 9.20711C8.40237 8.81658 8.40237 8.18342 8.79289 7.79289L11.2922 5.29361C11.2946 5.29119 11.297 5.28879 11.2995 5.2864C11.3938 5.19374 11.5019 5.12357 11.6172 5.07588C11.7343 5.02735 11.8625 5.0004 11.997 5L12 5L12.003 5C12.1375 5.0004 12.2657 5.02735 12.3828 5.07588C12.5021 5.12536 12.6098 5.19729 12.7005 5.2864C12.703 5.28879 12.7054 5.29119 12.7078 5.29361L15.2071 7.79289C15.5976 8.18342 15.5976 8.81658 15.2071 9.20711C14.8166 9.59763 14.1834 9.59763 13.7929 9.20711L13 8.41421L13 15.5858L13.7929 14.7929C14.1834 14.4024 14.8166 14.4024 15.2071 14.7929C15.5976 15.1834 15.5976 15.8166 15.2071 16.2071L13.9573 17.4569L12.7076 18.7066L12.705 18.7092C12.6096 18.804 12.4999 18.8757 12.3828 18.9241C12.2649 18.973 12.1356 19 12 19C11.8644 19 11.7351 18.973 11.6172 18.9241C11.5001 18.8757 11.3904 18.804 11.295 18.7092L11.2929 18.7071L8.79289 16.2071C8.40237 15.8166 8.40237 15.1834 8.79289 14.7929Z" fill="#575757"/>
</svg>
