<svg width="20" height="20" viewBox="0 0 20 20" fill="none" xmlns="http://www.w3.org/2000/svg">
<path fill-rule="evenodd" clip-rule="evenodd" d="M4.16675 10.0035C4.16675 9.54326 4.53984 9.17017 5.00008 9.17017H15.0001C15.4603 9.17017 15.8334 9.54326 15.8334 10.0035C15.8334 10.4637 15.4603 10.8368 15.0001 10.8368H5.00008C4.53984 10.8368 4.16675 10.4637 4.16675 10.0035Z" fill="white"/>
<path fill-rule="evenodd" clip-rule="evenodd" d="M9.41083 4.41073C9.73626 4.0853 10.2639 4.0853 10.5893 4.41073L15.5893 9.41074C15.9148 9.73617 15.9148 10.2638 15.5893 10.5892L10.5893 15.5892C10.2639 15.9147 9.73626 15.9147 9.41083 15.5892C9.08539 15.2638 9.08539 14.7362 9.41083 14.4107L13.8216 9.99999L9.41083 5.58925C9.08539 5.26381 9.08539 4.73617 9.41083 4.41073Z" fill="white"/>
</svg>
