<svg width="381" height="37" viewBox="0 0 381 37" fill="none" xmlns="http://www.w3.org/2000/svg">
<mask id="path-1-outside-1" maskUnits="userSpaceOnUse" x="0" y="0" width="381" height="37" fill="black">
<rect fill="white" width="381" height="37"/>
<path d="M11.0495 35.2503C24.4495 35.1004 25.6999 34.4004 26.9995 26.5502H27.2502L26.75 35.5003H11.0495V35.2503ZM1 35.5003V35.2503C3.99985 35.2503 4.74945 34.0004 4.74945 32.6499V4.30018C4.74945 2.85014 3.99985 1.60029 1 1.60029V1.35022H11.9496V1.60029C8.94988 1.60029 8.19967 2.85014 8.19967 4.30018V35.5003H1ZM59.7494 25.6501C59.7494 31.4002 55.0993 36 48.7494 36V35.7504C53.9994 35.7002 59.0495 31.85 59.0495 25.6501V5.65018C59.0495 3.14998 57.7997 1.8001 54.8497 1.8001V1.50014H63.8994V1.8001C61.0999 1.8001 59.7494 3.20036 59.7494 5.65018V25.6501ZM33.6995 4.4501C33.6995 3.00006 32.9494 1.8001 29.9496 1.8001V1.50014H40.8992V1.8001C37.8994 1.8001 37.1492 3.00006 37.1492 4.4501V25.8006C37.1492 31.3 41.3491 35.6503 45.8991 35.7504V36C38.1993 36 33.6995 31.3 33.6995 25.6501V4.4501ZM87.1981 14.5504C89.1483 11.7499 92.7484 6.30024 92.7484 4.4501C92.7484 2.74999 91.1484 1.75021 88.9983 1.75021V1.50014H98.6484V1.75021C97.0982 1.75021 95.8484 2.55018 94.598 4.39984L87.348 14.8499L87.1981 14.5504ZM87.998 35.2503C90.0982 35.2503 91.098 34.6002 91.098 33.4505C91.098 32.9006 90.8479 32.2007 90.298 31.4505L71.1983 4.25041C70.2482 2.89991 68.9979 1.75021 66.8474 1.75021V1.50014H78.498V1.75021C76.2982 1.75021 75.2979 2.40026 75.2979 3.40005C75.2979 3.90019 75.548 4.55025 75.9984 5.20042L95.3482 32.7507C96.3983 34.2505 97.4483 35.2503 99.7483 35.2503V35.5003H87.998V35.2503ZM65.748 35.2503C67.8981 35.2503 69.2983 34.1503 70.4978 32.3999L78.4482 21.25L78.6485 21.4005C76.998 24.0506 72.5482 30.6001 72.5482 32.5504C72.5482 34.1503 73.9983 35.2503 76.0481 35.2503V35.5003H65.748V35.2503ZM112.697 35.2503C127.297 35.1004 128.447 34.4004 129.798 26.9502H130.097L129.548 35.5003H112.697V35.2503ZM112.697 18.0002V17.8004L119.347 17.6504C122.647 17.5 123.447 16.55 124.247 13.2001H124.547V22.5003H124.247C123.447 19.1504 122.647 18.3005 119.347 18.1501L112.697 18.0002ZM128.897 1.50014V9.55016H128.647C127.947 2.60007 126.947 1.90013 112.697 1.75021V1.50014H128.897ZM102.647 35.5003V35.2503C105.647 35.2503 106.397 34.0503 106.397 32.6499V4.39984C106.397 3.00006 105.647 1.75021 102.647 1.75021V1.50014H109.847V35.5003H102.647ZM163.043 1.25007V1C166.694 1.14992 169.694 2.89991 171.493 4.80031L172.795 1H173.094V12.2003H172.694C171.993 6.3999 168.344 2.10042 163.043 1.25007ZM173.794 27.2003C173.794 32.3999 169.844 35.5507 163.744 36V35.7504C167.794 35.05 170.744 32.7003 170.744 29.1002C170.744 19.2505 150.594 20.1502 150.594 9.75034C150.594 4.85021 154.544 1.50014 160.344 1V1.25007C156.394 1.90013 153.643 4.4501 153.643 7.85042C153.643 17.6504 173.794 16.8001 173.794 27.2003ZM160.994 35.7504V36C157.144 35.8501 153.945 34.0004 151.844 32.0004L150.394 36H150.144V23.7502H150.444C151.244 29.7005 155.244 34.6506 160.994 35.7504ZM209.343 25.6501C209.343 31.4002 204.693 36 198.342 36V35.7504C203.592 35.7002 208.643 31.85 208.643 25.6501V5.65018C208.643 3.14998 207.392 1.8001 204.443 1.8001V1.50014H213.493V1.8001C210.692 1.8001 209.343 3.20036 209.343 5.65018V25.6501ZM183.293 4.4501C183.293 3.00006 182.543 1.8001 179.543 1.8001V1.50014H190.493V1.8001C187.493 1.8001 186.743 3.00006 186.743 4.4501V25.8006C186.743 31.3 190.943 35.6503 195.493 35.7504V36C187.793 36 183.293 31.3 183.293 25.6501V4.4501ZM250.441 32.3999C249.942 34.7501 248.341 36 245.942 36C241.341 36 241.042 30.9503 239.741 26.4003C238.891 23.0503 237.142 19.3501 229.441 18.9501V18.7C235.391 18.7 241.491 16.2502 241.491 9.99992C241.491 3.45043 235.942 1.85036 228.791 1.75021V1.50014C237.991 1.50014 244.99 2.89991 244.99 9.99992C244.99 16.2004 238.891 18.5003 232.592 18.8504C239.741 19.2505 242.391 22.3001 243.641 26.4502C244.942 30.8004 245.242 35.1004 247.641 35.1004C248.842 35.1004 249.692 34.1001 250.242 32.3999H250.441ZM229.691 35.2503V35.5003H218.741V35.2503C221.741 35.2503 222.492 34.0503 222.492 32.5504V4.4501C222.492 2.65033 221.741 1.75021 218.741 1.75021V1.50014H225.941V32.5504C225.941 34.0503 226.642 35.2503 229.691 35.2503ZM270.39 18.6502L263.74 18.5003V18.3005L270.39 18.1501C273.69 18.0002 274.49 17.0502 275.29 13.7002H275.59V23.0004H275.29C274.49 19.65 273.69 18.8001 270.39 18.6502ZM263.74 1.75021V1.50014H280.389V9.80023H280.14C279.39 2.60008 278.24 1.90013 263.74 1.75021ZM253.689 35.2503C256.689 35.2503 257.439 34.0503 257.439 32.6499V4.35007C257.439 2.95029 256.689 1.75021 253.689 1.75021V1.50014H260.89V32.6499C260.89 34.0503 261.639 35.2503 264.64 35.2503V35.5003H253.689V35.2503ZM315.789 35.2503V35.5003H304.49V35.2503C306.839 35.2503 308.39 34.3502 307.389 32.2007L295.39 4.89998L297.139 1H297.539L311.489 32.6002C312.39 34.6506 313.54 35.2503 315.789 35.2503ZM287.539 24.6005C285.938 28.7506 285.188 31.1002 285.188 32.3999C285.188 34.4004 287.139 35.2503 289.439 35.2503V35.5003H279.089V35.3002C281.438 35.3002 282.389 34.3502 283.289 32.3506L293.139 9.65031L293.289 9.90038C290.94 15.9502 289.089 20.5004 287.789 23.9001L299.338 24.1004L299.39 24.4002L287.539 24.6005ZM335.839 1.25007V1C340.588 1.14992 343.388 2.89991 345.089 4.75006L346.288 1H346.539V13.0003H346.188C345.389 6.55031 341.789 2.10042 335.839 1.25007ZM346.688 29.5998V30.0004C343.888 34.1503 339.639 36 334.488 36C326.288 36 316.788 30.2505 316.788 18.3005C316.788 6.45016 325.838 1.2003 332.988 1V1.25007C328.888 1.75021 320.738 5.29996 320.738 18.2003C320.738 29.8505 327.689 35.0002 335.239 35.0002C340.089 35.0002 344.089 33.0001 346.688 29.5998ZM362.636 35.2503C377.237 35.1004 378.387 34.4004 379.737 26.9502H380.037L379.487 35.5003H362.636V35.2503ZM362.636 18.0002V17.8004L369.287 17.6504C372.588 17.5 373.387 16.55 374.187 13.2001H374.487V22.5003H374.187C373.387 19.1504 372.588 18.3005 369.287 18.1501L362.636 18.0002ZM378.837 1.50014V9.55016H378.587C377.887 2.60007 376.888 1.90013 362.636 1.75021V1.50014H378.837ZM352.587 35.5003V35.2503C355.587 35.2503 356.337 34.0503 356.337 32.6499V4.39984C356.337 3.00006 355.587 1.75021 352.587 1.75021V1.50014H359.787V35.5003H352.587Z"/>
</mask>
<path d="M11.0495 35.2503C24.4495 35.1004 25.6999 34.4004 26.9995 26.5502H27.2502L26.75 35.5003H11.0495V35.2503ZM1 35.5003V35.2503C3.99985 35.2503 4.74945 34.0004 4.74945 32.6499V4.30018C4.74945 2.85014 3.99985 1.60029 1 1.60029V1.35022H11.9496V1.60029C8.94988 1.60029 8.19967 2.85014 8.19967 4.30018V35.5003H1ZM59.7494 25.6501C59.7494 31.4002 55.0993 36 48.7494 36V35.7504C53.9994 35.7002 59.0495 31.85 59.0495 25.6501V5.65018C59.0495 3.14998 57.7997 1.8001 54.8497 1.8001V1.50014H63.8994V1.8001C61.0999 1.8001 59.7494 3.20036 59.7494 5.65018V25.6501ZM33.6995 4.4501C33.6995 3.00006 32.9494 1.8001 29.9496 1.8001V1.50014H40.8992V1.8001C37.8994 1.8001 37.1492 3.00006 37.1492 4.4501V25.8006C37.1492 31.3 41.3491 35.6503 45.8991 35.7504V36C38.1993 36 33.6995 31.3 33.6995 25.6501V4.4501ZM87.1981 14.5504C89.1483 11.7499 92.7484 6.30024 92.7484 4.4501C92.7484 2.74999 91.1484 1.75021 88.9983 1.75021V1.50014H98.6484V1.75021C97.0982 1.75021 95.8484 2.55018 94.598 4.39984L87.348 14.8499L87.1981 14.5504ZM87.998 35.2503C90.0982 35.2503 91.098 34.6002 91.098 33.4505C91.098 32.9006 90.8479 32.2007 90.298 31.4505L71.1983 4.25041C70.2482 2.89991 68.9979 1.75021 66.8474 1.75021V1.50014H78.498V1.75021C76.2982 1.75021 75.2979 2.40026 75.2979 3.40005C75.2979 3.90019 75.548 4.55025 75.9984 5.20042L95.3482 32.7507C96.3983 34.2505 97.4483 35.2503 99.7483 35.2503V35.5003H87.998V35.2503ZM65.748 35.2503C67.8981 35.2503 69.2983 34.1503 70.4978 32.3999L78.4482 21.25L78.6485 21.4005C76.998 24.0506 72.5482 30.6001 72.5482 32.5504C72.5482 34.1503 73.9983 35.2503 76.0481 35.2503V35.5003H65.748V35.2503ZM112.697 35.2503C127.297 35.1004 128.447 34.4004 129.798 26.9502H130.097L129.548 35.5003H112.697V35.2503ZM112.697 18.0002V17.8004L119.347 17.6504C122.647 17.5 123.447 16.55 124.247 13.2001H124.547V22.5003H124.247C123.447 19.1504 122.647 18.3005 119.347 18.1501L112.697 18.0002ZM128.897 1.50014V9.55016H128.647C127.947 2.60007 126.947 1.90013 112.697 1.75021V1.50014H128.897ZM102.647 35.5003V35.2503C105.647 35.2503 106.397 34.0503 106.397 32.6499V4.39984C106.397 3.00006 105.647 1.75021 102.647 1.75021V1.50014H109.847V35.5003H102.647ZM163.043 1.25007V1C166.694 1.14992 169.694 2.89991 171.493 4.80031L172.795 1H173.094V12.2003H172.694C171.993 6.3999 168.344 2.10042 163.043 1.25007ZM173.794 27.2003C173.794 32.3999 169.844 35.5507 163.744 36V35.7504C167.794 35.05 170.744 32.7003 170.744 29.1002C170.744 19.2505 150.594 20.1502 150.594 9.75034C150.594 4.85021 154.544 1.50014 160.344 1V1.25007C156.394 1.90013 153.643 4.4501 153.643 7.85042C153.643 17.6504 173.794 16.8001 173.794 27.2003ZM160.994 35.7504V36C157.144 35.8501 153.945 34.0004 151.844 32.0004L150.394 36H150.144V23.7502H150.444C151.244 29.7005 155.244 34.6506 160.994 35.7504ZM209.343 25.6501C209.343 31.4002 204.693 36 198.342 36V35.7504C203.592 35.7002 208.643 31.85 208.643 25.6501V5.65018C208.643 3.14998 207.392 1.8001 204.443 1.8001V1.50014H213.493V1.8001C210.692 1.8001 209.343 3.20036 209.343 5.65018V25.6501ZM183.293 4.4501C183.293 3.00006 182.543 1.8001 179.543 1.8001V1.50014H190.493V1.8001C187.493 1.8001 186.743 3.00006 186.743 4.4501V25.8006C186.743 31.3 190.943 35.6503 195.493 35.7504V36C187.793 36 183.293 31.3 183.293 25.6501V4.4501ZM250.441 32.3999C249.942 34.7501 248.341 36 245.942 36C241.341 36 241.042 30.9503 239.741 26.4003C238.891 23.0503 237.142 19.3501 229.441 18.9501V18.7C235.391 18.7 241.491 16.2502 241.491 9.99992C241.491 3.45043 235.942 1.85036 228.791 1.75021V1.50014C237.991 1.50014 244.99 2.89991 244.99 9.99992C244.99 16.2004 238.891 18.5003 232.592 18.8504C239.741 19.2505 242.391 22.3001 243.641 26.4502C244.942 30.8004 245.242 35.1004 247.641 35.1004C248.842 35.1004 249.692 34.1001 250.242 32.3999H250.441ZM229.691 35.2503V35.5003H218.741V35.2503C221.741 35.2503 222.492 34.0503 222.492 32.5504V4.4501C222.492 2.65033 221.741 1.75021 218.741 1.75021V1.50014H225.941V32.5504C225.941 34.0503 226.642 35.2503 229.691 35.2503ZM270.39 18.6502L263.74 18.5003V18.3005L270.39 18.1501C273.69 18.0002 274.49 17.0502 275.29 13.7002H275.59V23.0004H275.29C274.49 19.65 273.69 18.8001 270.39 18.6502ZM263.74 1.75021V1.50014H280.389V9.80023H280.14C279.39 2.60008 278.24 1.90013 263.74 1.75021ZM253.689 35.2503C256.689 35.2503 257.439 34.0503 257.439 32.6499V4.35007C257.439 2.95029 256.689 1.75021 253.689 1.75021V1.50014H260.89V32.6499C260.89 34.0503 261.639 35.2503 264.64 35.2503V35.5003H253.689V35.2503ZM315.789 35.2503V35.5003H304.49V35.2503C306.839 35.2503 308.39 34.3502 307.389 32.2007L295.39 4.89998L297.139 1H297.539L311.489 32.6002C312.39 34.6506 313.54 35.2503 315.789 35.2503ZM287.539 24.6005C285.938 28.7506 285.188 31.1002 285.188 32.3999C285.188 34.4004 287.139 35.2503 289.439 35.2503V35.5003H279.089V35.3002C281.438 35.3002 282.389 34.3502 283.289 32.3506L293.139 9.65031L293.289 9.90038C290.94 15.9502 289.089 20.5004 287.789 23.9001L299.338 24.1004L299.39 24.4002L287.539 24.6005ZM335.839 1.25007V1C340.588 1.14992 343.388 2.89991 345.089 4.75006L346.288 1H346.539V13.0003H346.188C345.389 6.55031 341.789 2.10042 335.839 1.25007ZM346.688 29.5998V30.0004C343.888 34.1503 339.639 36 334.488 36C326.288 36 316.788 30.2505 316.788 18.3005C316.788 6.45016 325.838 1.2003 332.988 1V1.25007C328.888 1.75021 320.738 5.29996 320.738 18.2003C320.738 29.8505 327.689 35.0002 335.239 35.0002C340.089 35.0002 344.089 33.0001 346.688 29.5998ZM362.636 35.2503C377.237 35.1004 378.387 34.4004 379.737 26.9502H380.037L379.487 35.5003H362.636V35.2503ZM362.636 18.0002V17.8004L369.287 17.6504C372.588 17.5 373.387 16.55 374.187 13.2001H374.487V22.5003H374.187C373.387 19.1504 372.588 18.3005 369.287 18.1501L362.636 18.0002ZM378.837 1.50014V9.55016H378.587C377.887 2.60007 376.888 1.90013 362.636 1.75021V1.50014H378.837ZM352.587 35.5003V35.2503C355.587 35.2503 356.337 34.0503 356.337 32.6499V4.39984C356.337 3.00006 355.587 1.75021 352.587 1.75021V1.50014H359.787V35.5003H352.587Z" fill="black"/>
<path d="M11.0495 35.2503C24.4495 35.1004 25.6999 34.4004 26.9995 26.5502H27.2502L26.75 35.5003H11.0495V35.2503ZM1 35.5003V35.2503C3.99985 35.2503 4.74945 34.0004 4.74945 32.6499V4.30018C4.74945 2.85014 3.99985 1.60029 1 1.60029V1.35022H11.9496V1.60029C8.94988 1.60029 8.19967 2.85014 8.19967 4.30018V35.5003H1ZM59.7494 25.6501C59.7494 31.4002 55.0993 36 48.7494 36V35.7504C53.9994 35.7002 59.0495 31.85 59.0495 25.6501V5.65018C59.0495 3.14998 57.7997 1.8001 54.8497 1.8001V1.50014H63.8994V1.8001C61.0999 1.8001 59.7494 3.20036 59.7494 5.65018V25.6501ZM33.6995 4.4501C33.6995 3.00006 32.9494 1.8001 29.9496 1.8001V1.50014H40.8992V1.8001C37.8994 1.8001 37.1492 3.00006 37.1492 4.4501V25.8006C37.1492 31.3 41.3491 35.6503 45.8991 35.7504V36C38.1993 36 33.6995 31.3 33.6995 25.6501V4.4501ZM87.1981 14.5504C89.1483 11.7499 92.7484 6.30024 92.7484 4.4501C92.7484 2.74999 91.1484 1.75021 88.9983 1.75021V1.50014H98.6484V1.75021C97.0982 1.75021 95.8484 2.55018 94.598 4.39984L87.348 14.8499L87.1981 14.5504ZM87.998 35.2503C90.0982 35.2503 91.098 34.6002 91.098 33.4505C91.098 32.9006 90.8479 32.2007 90.298 31.4505L71.1983 4.25041C70.2482 2.89991 68.9979 1.75021 66.8474 1.75021V1.50014H78.498V1.75021C76.2982 1.75021 75.2979 2.40026 75.2979 3.40005C75.2979 3.90019 75.548 4.55025 75.9984 5.20042L95.3482 32.7507C96.3983 34.2505 97.4483 35.2503 99.7483 35.2503V35.5003H87.998V35.2503ZM65.748 35.2503C67.8981 35.2503 69.2983 34.1503 70.4978 32.3999L78.4482 21.25L78.6485 21.4005C76.998 24.0506 72.5482 30.6001 72.5482 32.5504C72.5482 34.1503 73.9983 35.2503 76.0481 35.2503V35.5003H65.748V35.2503ZM112.697 35.2503C127.297 35.1004 128.447 34.4004 129.798 26.9502H130.097L129.548 35.5003H112.697V35.2503ZM112.697 18.0002V17.8004L119.347 17.6504C122.647 17.5 123.447 16.55 124.247 13.2001H124.547V22.5003H124.247C123.447 19.1504 122.647 18.3005 119.347 18.1501L112.697 18.0002ZM128.897 1.50014V9.55016H128.647C127.947 2.60007 126.947 1.90013 112.697 1.75021V1.50014H128.897ZM102.647 35.5003V35.2503C105.647 35.2503 106.397 34.0503 106.397 32.6499V4.39984C106.397 3.00006 105.647 1.75021 102.647 1.75021V1.50014H109.847V35.5003H102.647ZM163.043 1.25007V1C166.694 1.14992 169.694 2.89991 171.493 4.80031L172.795 1H173.094V12.2003H172.694C171.993 6.3999 168.344 2.10042 163.043 1.25007ZM173.794 27.2003C173.794 32.3999 169.844 35.5507 163.744 36V35.7504C167.794 35.05 170.744 32.7003 170.744 29.1002C170.744 19.2505 150.594 20.1502 150.594 9.75034C150.594 4.85021 154.544 1.50014 160.344 1V1.25007C156.394 1.90013 153.643 4.4501 153.643 7.85042C153.643 17.6504 173.794 16.8001 173.794 27.2003ZM160.994 35.7504V36C157.144 35.8501 153.945 34.0004 151.844 32.0004L150.394 36H150.144V23.7502H150.444C151.244 29.7005 155.244 34.6506 160.994 35.7504ZM209.343 25.6501C209.343 31.4002 204.693 36 198.342 36V35.7504C203.592 35.7002 208.643 31.85 208.643 25.6501V5.65018C208.643 3.14998 207.392 1.8001 204.443 1.8001V1.50014H213.493V1.8001C210.692 1.8001 209.343 3.20036 209.343 5.65018V25.6501ZM183.293 4.4501C183.293 3.00006 182.543 1.8001 179.543 1.8001V1.50014H190.493V1.8001C187.493 1.8001 186.743 3.00006 186.743 4.4501V25.8006C186.743 31.3 190.943 35.6503 195.493 35.7504V36C187.793 36 183.293 31.3 183.293 25.6501V4.4501ZM250.441 32.3999C249.942 34.7501 248.341 36 245.942 36C241.341 36 241.042 30.9503 239.741 26.4003C238.891 23.0503 237.142 19.3501 229.441 18.9501V18.7C235.391 18.7 241.491 16.2502 241.491 9.99992C241.491 3.45043 235.942 1.85036 228.791 1.75021V1.50014C237.991 1.50014 244.99 2.89991 244.99 9.99992C244.99 16.2004 238.891 18.5003 232.592 18.8504C239.741 19.2505 242.391 22.3001 243.641 26.4502C244.942 30.8004 245.242 35.1004 247.641 35.1004C248.842 35.1004 249.692 34.1001 250.242 32.3999H250.441ZM229.691 35.2503V35.5003H218.741V35.2503C221.741 35.2503 222.492 34.0503 222.492 32.5504V4.4501C222.492 2.65033 221.741 1.75021 218.741 1.75021V1.50014H225.941V32.5504C225.941 34.0503 226.642 35.2503 229.691 35.2503ZM270.39 18.6502L263.74 18.5003V18.3005L270.39 18.1501C273.69 18.0002 274.49 17.0502 275.29 13.7002H275.59V23.0004H275.29C274.49 19.65 273.69 18.8001 270.39 18.6502ZM263.74 1.75021V1.50014H280.389V9.80023H280.14C279.39 2.60008 278.24 1.90013 263.74 1.75021ZM253.689 35.2503C256.689 35.2503 257.439 34.0503 257.439 32.6499V4.35007C257.439 2.95029 256.689 1.75021 253.689 1.75021V1.50014H260.89V32.6499C260.89 34.0503 261.639 35.2503 264.64 35.2503V35.5003H253.689V35.2503ZM315.789 35.2503V35.5003H304.49V35.2503C306.839 35.2503 308.39 34.3502 307.389 32.2007L295.39 4.89998L297.139 1H297.539L311.489 32.6002C312.39 34.6506 313.54 35.2503 315.789 35.2503ZM287.539 24.6005C285.938 28.7506 285.188 31.1002 285.188 32.3999C285.188 34.4004 287.139 35.2503 289.439 35.2503V35.5003H279.089V35.3002C281.438 35.3002 282.389 34.3502 283.289 32.3506L293.139 9.65031L293.289 9.90038C290.94 15.9502 289.089 20.5004 287.789 23.9001L299.338 24.1004L299.39 24.4002L287.539 24.6005ZM335.839 1.25007V1C340.588 1.14992 343.388 2.89991 345.089 4.75006L346.288 1H346.539V13.0003H346.188C345.389 6.55031 341.789 2.10042 335.839 1.25007ZM346.688 29.5998V30.0004C343.888 34.1503 339.639 36 334.488 36C326.288 36 316.788 30.2505 316.788 18.3005C316.788 6.45016 325.838 1.2003 332.988 1V1.25007C328.888 1.75021 320.738 5.29996 320.738 18.2003C320.738 29.8505 327.689 35.0002 335.239 35.0002C340.089 35.0002 344.089 33.0001 346.688 29.5998ZM362.636 35.2503C377.237 35.1004 378.387 34.4004 379.737 26.9502H380.037L379.487 35.5003H362.636V35.2503ZM362.636 18.0002V17.8004L369.287 17.6504C372.588 17.5 373.387 16.55 374.187 13.2001H374.487V22.5003H374.187C373.387 19.1504 372.588 18.3005 369.287 18.1501L362.636 18.0002ZM378.837 1.50014V9.55016H378.587C377.887 2.60007 376.888 1.90013 362.636 1.75021V1.50014H378.837ZM352.587 35.5003V35.2503C355.587 35.2503 356.337 34.0503 356.337 32.6499V4.39984C356.337 3.00006 355.587 1.75021 352.587 1.75021V1.50014H359.787V35.5003H352.587Z" stroke="black" stroke-width="0.6" mask="url(#path-1-outside-1)"/>
</svg>
