<svg width="32" height="32" viewBox="0 0 32 32" fill="none" xmlns="http://www.w3.org/2000/svg">
<path d="M5.33268 1.33337C4.5963 1.33337 3.99935 1.93033 3.99935 2.66671V8.00004C3.99935 8.73642 4.5963 9.33337 5.33268 9.33337C6.06906 9.33337 6.66602 8.73642 6.66602 8.00004V4.00004H25.3327V28H6.66602V24C6.66602 23.2637 6.06906 22.6667 5.33268 22.6667C4.5963 22.6667 3.99935 23.2637 3.99935 24V29.3334C3.99935 30.0698 4.5963 30.6667 5.33268 30.6667H26.666C27.4024 30.6667 27.9993 30.0698 27.9993 29.3334V2.66671C27.9993 1.93033 27.4024 1.33337 26.666 1.33337H5.33268Z" fill="#3D6E47"/>
<path d="M3.99935 18.6667C3.26297 18.6667 2.66602 19.2637 2.66602 20C2.66602 20.7364 3.26297 21.3334 3.99935 21.3334H6.66602C7.4024 21.3334 7.99935 20.7364 7.99935 20C7.99935 19.2637 7.4024 18.6667 6.66602 18.6667H3.99935Z" fill="#3D6E47"/>
<path d="M2.66602 16C2.66602 15.2637 3.26297 14.6667 3.99935 14.6667H6.66602C7.4024 14.6667 7.99935 15.2637 7.99935 16C7.99935 16.7364 7.4024 17.3334 6.66602 17.3334H3.99935C3.26297 17.3334 2.66602 16.7364 2.66602 16Z" fill="#3D6E47"/>
<path d="M3.99935 10.6667C3.26297 10.6667 2.66602 11.2637 2.66602 12C2.66602 12.7364 3.26297 13.3334 3.99935 13.3334H6.66602C7.4024 13.3334 7.99935 12.7364 7.99935 12C7.99935 11.2637 7.4024 10.6667 6.66602 10.6667H3.99935Z" fill="#3D6E47"/>
<path d="M9.33268 23.3334C9.33268 19.6515 12.3174 16.6667 15.9993 16.6667C19.6813 16.6667 22.666 19.6515 22.666 23.3334C22.666 24.0698 22.0691 24.6667 21.3327 24.6667C20.5963 24.6667 19.9993 24.0698 19.9993 23.3334C19.9993 21.1242 18.2085 19.3334 15.9993 19.3334C13.7902 19.3334 11.9993 21.1242 11.9993 23.3334C11.9993 24.0698 11.4024 24.6667 10.666 24.6667C9.92964 24.6667 9.33268 24.0698 9.33268 23.3334Z" fill="#3D6E47"/>
<path d="M11.9993 11.3334C11.9993 9.12423 13.7902 7.33337 15.9993 7.33337C18.2085 7.33337 19.9993 9.12423 19.9993 11.3334C19.9993 13.5425 18.2085 15.3334 15.9993 15.3334C13.7902 15.3334 11.9993 13.5425 11.9993 11.3334Z" fill="#3D6E47"/>
</svg>
