<svg width="32" height="32" viewBox="0 0 32 32" fill="none" xmlns="http://www.w3.org/2000/svg">
<path fill-rule="evenodd" clip-rule="evenodd" d="M1.99935 2.66663C1.26297 2.66663 0.666016 3.26358 0.666016 3.99996C0.666016 4.73634 1.26297 5.33329 1.99935 5.33329H3.29165L7.37249 21.6567C7.52088 22.2502 8.05419 22.6666 8.66602 22.6666C6.82507 22.6666 5.33268 24.159 5.33268 26C5.33268 27.8409 6.82507 29.3333 8.66602 29.3333C10.507 29.3333 11.9993 27.8409 11.9993 26C11.9993 24.159 10.507 22.6666 8.66602 22.6666H25.9993C24.1584 22.6666 22.666 24.159 22.666 26C22.666 27.8409 24.1584 29.3333 25.9993 29.3333C27.8403 29.3333 29.3327 27.8409 29.3327 26C29.3327 24.159 27.8403 22.6666 25.9993 22.6666C26.6112 22.6666 27.1445 22.2502 27.2929 21.6567L30.6262 8.32334C30.7258 7.92502 30.6363 7.50303 30.3836 7.17941C30.1309 6.85579 29.7433 6.66663 29.3327 6.66663H6.37372L5.62621 3.67658C5.47782 3.08302 4.94451 2.66663 4.33268 2.66663H1.99935ZM7.99935 26C7.99935 25.6318 8.29783 25.3333 8.66602 25.3333C9.03421 25.3333 9.33268 25.6318 9.33268 26C9.33268 26.3681 9.03421 26.6666 8.66602 26.6666C8.29783 26.6666 7.99935 26.3681 7.99935 26ZM25.3327 26C25.3327 25.6318 25.6312 25.3333 25.9993 25.3333C26.3675 25.3333 26.666 25.6318 26.666 26C26.666 26.3681 26.3675 26.6666 25.9993 26.6666C25.6312 26.6666 25.3327 26.3681 25.3327 26ZM17.3327 10.6666C18.0691 10.6666 18.666 11.2636 18.666 12V13.3333H19.9993C20.7357 13.3333 21.3327 13.9302 21.3327 14.6666C21.3327 15.403 20.7357 16 19.9993 16H18.666V17.3333C18.666 18.0697 18.0691 18.6666 17.3327 18.6666C16.5963 18.6666 15.9993 18.0697 15.9993 17.3333V16H14.666C13.9296 16 13.3327 15.403 13.3327 14.6666C13.3327 13.9302 13.9296 13.3333 14.666 13.3333H15.9993V12C15.9993 11.2636 16.5963 10.6666 17.3327 10.6666Z" fill="#808080"/>
</svg>
