<svg width="32" height="32" viewBox="0 0 32 32" fill="none" xmlns="http://www.w3.org/2000/svg">
<path fill-rule="evenodd" clip-rule="evenodd" d="M15.9993 4.00004C13.7902 4.00004 11.9993 5.7909 11.9993 8.00004C11.9993 10.2092 13.7902 12 15.9993 12C18.2085 12 19.9993 10.2092 19.9993 8.00004C19.9993 5.7909 18.2085 4.00004 15.9993 4.00004ZM9.33268 8.00004C9.33268 4.31814 12.3175 1.33337 15.9993 1.33337C19.6812 1.33337 22.666 4.31814 22.666 8.00004C22.666 11.6819 19.6812 14.6667 15.9993 14.6667C12.3175 14.6667 9.33268 11.6819 9.33268 8.00004ZM2.66602 29.3334C2.66602 21.9696 8.63557 16 15.9993 16C23.3631 16 29.3327 21.9696 29.3327 29.3334C29.3327 30.0698 28.7357 30.6667 27.9993 30.6667C27.263 30.6667 26.666 30.0698 26.666 29.3334C26.666 23.4424 21.8904 18.6667 15.9993 18.6667C10.1083 18.6667 5.33268 23.4424 5.33268 29.3334C5.33268 30.0698 4.73573 30.6667 3.99935 30.6667C3.26297 30.6667 2.66602 30.0698 2.66602 29.3334Z" fill="#808080"/>
</svg>
