<svg width="48" height="48" viewBox="0 0 48 48" fill="none" xmlns="http://www.w3.org/2000/svg">
<path fill-rule="evenodd" clip-rule="evenodd" d="M29.0515 2.2987C29.6411 2.66311 30 3.30685 30 4V8.76393L39.1056 4.21115C39.7256 3.90116 40.4618 3.93429 41.0515 4.2987C41.6411 4.66311 42 5.30685 42 6V34C42 34.7575 41.572 35.4501 40.8944 35.7889L20.8944 45.7889C20.2745 46.0988 19.5382 46.0657 18.9485 45.7013C18.3589 45.3369 18 44.6932 18 44V39.2361L8.89443 43.7889C8.27445 44.0988 7.53817 44.0657 6.94854 43.7013C6.3589 43.3369 6 42.6932 6 42V14C6 13.2425 6.428 12.5499 7.10557 12.2111L27.1056 2.21115C27.7255 1.90116 28.4618 1.93429 29.0515 2.2987ZM18 34.7639V16C18 15.2425 18.428 14.5499 19.1056 14.2111L26 10.7639V7.23607L10 15.2361V38.7639L18 34.7639ZM22 17.2361V40.7639L38 32.7639V9.23607L22 17.2361Z" fill="#1D4732"/>
</svg>
