<svg width="48" height="48" viewBox="0 0 48 48" fill="none" xmlns="http://www.w3.org/2000/svg">
<path d="M33.0909 4C40.2159 4 46 9.72622 46 16.8C46 21.8964 43.4641 26.6386 39.0249 31.5934C38.4591 32.225 37.8746 32.8469 37.236 33.5012L34.498 36.2213C31.974 38.7201 28.842 41.2006 25.1017 43.6692C24.4334 44.1103 23.5666 44.1103 22.8983 43.6692C19.498 41.4251 16.6005 39.171 14.2055 36.9024L12.3084 35.0477C11.5212 34.2728 11.5112 33.0065 12.2861 32.2194C13.061 31.4322 14.3273 31.4222 15.1144 32.1971L16.3162 33.3787C18.218 35.2615 20.5242 37.1565 23.2348 39.0603L24 39.588L24.7652 39.0603C27.1746 37.3681 29.2645 35.6828 31.0349 34.0068L33.7453 31.3438C34.6037 30.4828 35.344 29.7076 36.0457 28.9243C39.8886 24.635 42 20.6866 42 16.8C42 11.9444 38.0157 8 33.0909 8C30.0647 8 27.3016 9.49926 25.6603 11.9431C24.8679 13.123 23.1321 13.123 22.3397 11.9431C20.6984 9.49926 17.9353 8 14.9091 8C9.98425 8 6 11.9444 6 16.8C6 18.2625 6.30734 19.752 6.90376 21.2773C7.04158 21.6298 7.19466 21.9837 7.36265 22.3389C7.83494 23.3374 7.40834 24.5297 6.40983 25.002C5.41132 25.4742 4.21901 25.0477 3.74673 24.0491C3.5399 23.6119 3.35026 23.1734 3.17842 22.7339C2.4081 20.764 2 18.786 2 16.8C2 9.72621 7.78407 4 14.9091 4C18.1652 4 21.2176 5.20584 23.5459 7.28531L24 7.712L24.0262 7.68537C26.2766 5.4836 29.2937 4.14596 32.5466 4.01125L33.0909 4ZM36.6613 14.39C37.3898 15.1034 37.457 16.2372 36.8551 17.0281L36.6907 17.2182L27.0069 27.1053C26.2805 27.8471 25.1215 27.9014 24.3316 27.2703L24.1423 27.0982L19.08 21.876L9.40262 31.3991C8.67579 32.1142 7.54091 32.1604 6.76134 31.5439L6.57429 31.376C5.85923 30.6492 5.81303 29.5143 6.42947 28.7347L6.59738 28.5477L17.7112 17.6139C18.4417 16.8952 19.5836 16.8527 20.3628 17.4773L20.5496 17.6473L25.584 22.84L33.8331 14.4194C34.606 13.6302 35.8722 13.6171 36.6613 14.39Z" fill="#1D4732"/>
</svg>
