<svg width="48" height="48" viewBox="0 0 48 48" fill="none" xmlns="http://www.w3.org/2000/svg">
<path fill-rule="evenodd" clip-rule="evenodd" d="M3.71684 3.04358C9.71321 1.26896 15.1946 1.95844 19.9331 5.2931L19.9332 5.29311C23.1274 7.54103 24.9817 10.7759 25.6785 14.7883C27.2971 12.6909 29.3347 11.2139 31.8434 10.4883L32.3991 12.4095L31.8434 10.4883C36.4083 9.1678 40.8455 9.79236 45.0247 12.2866C45.6271 12.6461 45.997 13.2949 45.9997 13.9963C46.0103 16.7399 45.4178 19.2269 44.1419 21.3802C42.8653 23.5348 40.974 25.2377 38.5708 26.5197C34.2345 28.8329 29.7011 28.6155 25.1819 26.2334C24.7749 29.0242 24.5928 32.3064 24.6485 36.093C28.2335 36.1849 32.5198 36.8552 37.4715 38.0565C38.5449 38.3169 39.204 39.3982 38.9436 40.4717C38.6831 41.5451 37.6018 42.2042 36.5284 41.9437C31.8292 40.8037 27.9263 40.2034 24.7865 40.0987C24.8499 41.3018 24.9338 42.5482 25.0386 43.8381C25.128 44.939 24.308 45.904 23.2071 45.9935C22.1061 46.0829 21.1411 45.2629 21.0517 44.162C20.9432 42.8265 20.8558 41.5288 20.7898 40.2693C17.9832 40.6187 14.9857 41.4642 11.7895 42.8377C10.7747 43.2738 9.5985 42.8046 9.16241 41.7897C8.72631 40.7749 9.19548 39.5987 10.2103 39.1626C13.8138 37.6141 17.2967 36.6341 20.6503 36.2579C20.5817 31.9094 20.8112 28.0881 21.3557 24.8114C15.9677 25.8669 11.2167 24.866 7.36782 21.5068L8.64998 20.0378L7.36781 21.5068C2.81485 17.5331 1.28118 11.7516 2.30501 4.67499C2.41681 3.90221 2.96812 3.26516 3.71684 3.04358ZM26.3371 22.3001C30.1906 24.577 33.5566 24.661 36.6882 22.9904L36.6882 22.9904C38.5507 21.9969 39.8539 20.7703 40.7006 19.3412C41.3915 18.1753 41.8247 16.7966 41.9568 15.1632C39.0201 13.6946 36.0507 13.4352 32.9549 14.3308L32.9548 14.3308C30.1731 15.1354 27.8632 17.5301 26.3371 22.3001ZM21.9295 20.5772C22.3728 14.5428 20.7486 10.7582 17.6311 8.56428L18.7821 6.92869L17.6311 8.56428C14.3298 6.24102 10.5465 5.52271 6.10658 6.54809C5.57942 12.0313 6.99971 15.8763 9.99804 18.4932C12.9817 21.0973 16.8423 21.9246 21.9295 20.5772Z" fill="#1D4732"/>
</svg>
